<svg width="64" height="64" xmlns="http://www.w3.org/2000/svg" xml:space="preserve" version="1.1" enable-background="new 0 0 64 64">

 <g>
  <title>Layer 1</title>
  <path transform="rotate(49.6052 17.9691 31.6801)" id="svg_1" d="m32.872,21.538c-0.657,-0.501 -1.601,-0.375 -2.102,0.287l-5.221,6.868l-7.805,-5.93l5.22,-6.87c0.501,-0.659 0.373,-1.601 -0.287,-2.102c-0.658,-0.501 -1.601,-0.373 -2.102,0.287l-5.219,6.87l-2.838,-2.156c-0.659,-0.501 -1.601,-0.373 -2.102,0.287l-6.936,9.129c-0.798,1.05 -1.139,2.349 -0.96,3.655c0.178,1.308 0.855,2.467 1.906,3.265l5.195,3.947l-6.375,8.392c-0.501,0.659 -0.373,1.601 0.287,2.102c0.271,0.206 0.59,0.306 0.906,0.306c0.453,0 0.9,-0.204 1.195,-0.593l6.375,-8.392l5.196,3.948c0.869,0.66 1.907,1.008 2.979,1.008c0.225,0 0.451,-0.015 0.678,-0.046c1.307,-0.179 2.467,-0.856 3.265,-1.907l6.936,-9.128c0.501,-0.659 0.373,-1.601 -0.287,-2.102l-2.838,-2.156l5.221,-6.868c0.501,-0.659 0.373,-1.599 -0.287,-2.101zm-11.133,20.541c-0.313,0.413 -0.769,0.679 -1.282,0.749c-0.513,0.071 -1.022,-0.063 -1.436,-0.378l-6.39,-4.854c0,-0.001 0,-0.001 0,-0.001s0,0 -0.001,-0.001l-6.389,-4.854c-0.412,-0.313 -0.678,-0.769 -0.748,-1.281c-0.07,-0.514 0.063,-1.023 0.377,-1.436l6.028,-7.935l13.026,9.896c0.001,0.001 0.002,0.003 0.004,0.004c0.001,0.001 0.002,0.001 0.003,0.002l2.836,2.154l-6.028,7.935z"/>
  <path transform="rotate(51.8225 49.0779 28.8176)" stroke="null" id="svg_2" d="m63.479,31.135c-0.179,-1.307 -0.855,-2.467 -1.906,-3.265l-5.195,-3.947l6.374,-8.391c0.501,-0.66 0.373,-1.601 -0.287,-2.102c-0.66,-0.501 -1.602,-0.373 -2.102,0.287l-6.374,8.391l-5.196,-3.948c-2.17,-1.648 -5.272,-1.225 -6.921,0.944l-6.936,9.128c-0.501,0.66 -0.373,1.601 0.287,2.102c0.001,0 0.002,0.001 0.002,0.001l18.256,13.87c0.271,0.206 0.59,0.306 0.906,0.306c0.113,0 0.227,-0.013 0.337,-0.038c0.33,-0.075 0.637,-0.263 0.858,-0.554l6.936,-9.128c0.799,-1.05 1.14,-2.349 0.961,-3.656zm-3.349,1.842l-6.028,7.934l-15.87,-12.056l6.028,-7.934c0.647,-0.851 1.864,-1.019 2.718,-0.371l12.78,9.709c0.412,0.313 0.679,0.769 0.748,1.282c0.071,0.514 -0.063,1.023 -0.376,1.436z"/>
 </g>
</svg>